<mxfile host="app.diagrams.net" modified="2024-03-03T09:11:18.171Z" agent="Mozilla/5.0 (Windows NT 10.0; Win64; x64) AppleWebKit/537.36 (KHTML, like Gecko) Chrome/122.0.0.0 Safari/537.36 Edg/122.0.0.0" etag="AeBpJzmMlujPOvb6LjEH" version="23.1.7" type="github">
  <diagram name="第 1 页" id="HDeUSG3cyBSkXVUVvXKA">
    <mxGraphModel dx="1000" dy="639" grid="1" gridSize="10" guides="1" tooltips="1" connect="1" arrows="1" fold="1" page="1" pageScale="1" pageWidth="827" pageHeight="1169" math="0" shadow="0">
      <root>
        <mxCell id="0" />
        <mxCell id="1" parent="0" />
        <mxCell id="6IPiZAuCc5kXTbYYCpUo-7" value="" style="rounded=0;whiteSpace=wrap;html=1;" parent="1" vertex="1">
          <mxGeometry x="400" y="40" width="360" height="200" as="geometry" />
        </mxCell>
        <mxCell id="6IPiZAuCc5kXTbYYCpUo-4" value="" style="shape=image;verticalLabelPosition=bottom;labelBackgroundColor=default;verticalAlign=top;aspect=fixed;imageAspect=0;image=data:image/png,iVBORw0KGgoAAAANSUhEUgAAAVEAAACVCAYAAADheMlUAAAAAXNSR0IArs4c6QAAAARnQU1BAACxjwv8YQUAAAAJcEhZcwAAFiUAABYlAUlSJPAAABzqSURBVHhe7Z3bqx1F9sc7v3cNiT6JyDBGmBAlEhOFqA8GkugogqhEiQ8Bw8RoEITBy4kSZDSaIDMQxhjBQB5kog+Dw0AkGogPXtAkyhETFNTBB5knx+sfkF9/yl6mTqWrb7Uvvff+fqBO9ene1ZeqVavWqqquXnQ2JxNCCNGJ/ytiIYQQHZASFUKIBKREhRAiASlRIYRIQEpUCCESkBKdUv73v/9lL7/8crZmzZps0aJFLixdujR78MEHs//85z/Fr4QYDK+99lp2zz33/CZrBP5/7733il9ML1KiU8inn36a3XzzzdkTTzyRbd26Nfvuu+8yZrI999xz2UsvvZStXr3a/UaIVGisUZb33ntvdvnll2dff/21k7V33303e/vtt7Mbb7zRKdiphnmik0CuCM7u2bPnbF5QzGt1IVcGZw8cOFD8QgD5ZHmUC3Kx9xybNm1yx7Zv317sEaI7Jk/UzRDqJseQx2lmIixRWjssq8ceeyzbsGGDa+UOHz6c/fDDD9kDDzzgXFZ+I7LsqaeectZAriSzG264odh7jlWrVrlYLr1IBQvz9ddfdxboo48+Wuw9x4oVK1yMPE41hTLtNRs3bixt7fLCObtkyRJ3bG5urtg7u5Af5AWB7TLMciBPhUjBPJ7coCn2LMQsUcI003tLlNburbfectv333+/i43f//73rj8Gdu/ePfPW1cGDB11Mnyd5E4K1Tj8V3HHHHS4Wogtvvvnmbxbm+vXrXRzyxhtvuDhvuF08rfReif7rX/9ycW45ZRdddJHb9rntttuKrSw7duxYsTWbmIJkMKkMlCxdILn1nt11113FXiHa8/7777sYBVlWLxmVN+Nnx44dLp5Weq9E6XOBdevWuTjkuuuuK7ay7J133im2Zg+szFOnTrlt64vywaKnTxkFSj6VCb4QTbEG2/rYfZj5cfvtt7ttxi7K+uaniV4r0SZzzHxl8OOPPxZbs8dHH31UbGULhBa3i0E5pqAw2ISiXblyZXFUiPb4DfbatWtdDChP5iFfffXV2bXXXusGgK27bZqZiNF5WLx4cbF1PvQBgrkPs4i5V3R7AILOhOdbb73VbdN/tX///tK+UiHaUNZgM0MG5YnHg/I8evTo1FugRq+V6JkzZ4qtchfVkGuaZR9//LGLr7nmGheTJ0yyx51CgTI1TBPsxSA4ffq0i814gZMnT2ZHjhxx051w5ad+gr1Hr5XoTz/9VGyJOswKv/76610MKFLcqX//+99Okd50002aHyqSOX78uItpmH3++Mc/OgsU6D6iK2kWmBh3/ueffy62RIjfd/yHP/yh2DoHbhVWAyPzNg3KB8WKsrV3nnHNulQA7oO0e/fuLfbUg3W8c+fOBe/4L1u2rPE56O8lzSy8o90XrMG+6qqrXOxDw03fO+zatcvFPimyZmlioU5mUmWN35Vdp9dK9Morryy2zrkQVeBKzCLW7cHIe6zP07o8zO036C9FwTIoh/tPAPpSmyomhBNlxnvSNuDQFPrReJ//b3/7m3vnGouZ52AmQZ1wc3yW+8HHgd8ltHz58mJrITZ+EcrCIGStirppeymyxv3xuzJ6rUQvvPDCYquaEydOuJhWZRaxqV2he9UEXhPFQmXQCUVLsGllW7ZscXEVtOx33nmn+23XSdVc2wYhaASefvppt21uYxlUZoTaBtL6jFnLhFBZ+MdCqo6Niw8//NDFKJ+2szxSZQ3m5+edAvQDli+hyaBpF1lD+XN/MVnrtRK95JJLiq0s++abb4qt86FgwAZVZg1r8cvm7BlmsYV5xAAAFrwvgGyzj5a6rg/1lltucaO1uGhV149BJQinwdQ1ngg1LxTs2bOn2CNGhVmiTGGKYQrJH3iCVFlDgYaKmzRYl9u2bSv2xOkia4Dyx0CLzVXvtRK1DAZG/8rw3Qt/UGVWQIgQQPDn7Pn4I6UoPYO8owEqs+Bt33//+18Xx6BVt66CQfHtt9+6OCa0f/3rX11ctuiFGC42yT5WNsijNdh33323i2EQslZm+b7wwgvOQuw697lO1uivpf5gwcbo/cDSn/70JxdjbZW1VFZgKFtGB2cN68qIgdX25JNPum3cbX/u3i+//FJsnY9ZrB988IGLR4XdL1ZMmZLEHWadhFdeeaXY038YsTbX089/8I+FVB0bB36DHWNubs7F1Ed/rYthyJpZoSbfbamTNY7fd999bh1e33oO6b0SpSDofwErIIOHfP755932vn37XDxrfPbZZ8VWlj3yyCMLRjrZpl8Nwae1fvHFF4sj9VS93DBMNm/e7Mrbpsr4UN7MQcSN11tXo+eLL74otjJX77DQKBPA0sRVtqXx/vnPfzb2ULrKGlYo1wobpqZUyRpwnG6Luq6C3itRCuLVV1912xQQBYU1YgoCF4FO5Vm0QsHcK/KAqRtMK7HBCEY9ETIm3CMoXdzuyy67rNgaPrwySKWM3etDDz3knifmxvM5FM4hhoO9FYfl9vjjj2eHDh3KLr74YidrjHzTWB84cMD1kXdp5NrImlmhzzzzTLGnHXWyhizh5cXceBqN37omcldhIpifn3ersectx29rFLI25pEjR4pfzCaWF2Wr2NdBGtLmVmqx5xzkbdvzst4racpWOa+Dss0rp1uZvwzK3561KnS5tmgGctI1jwcta8hL3qAW/7WjTtbA1zOxYM8yMUpUnI8JJqELCBFpEZgQhIxjVYIW0lWJ8vs6oY5hFbtNBRTdIJ+75vUgZS23eN3vu3waKEXWYvLde3dexLGO+FwoXNwW3JhcCbkuEX+WA24OA3kMRHXpAmgDXTP0rzFQ5F+L++nT/MhZx5/fGptkX8UgZY2+UPoy266JOzRZK5SpmEDMCkv5NIpZs7TOtPC00NZtggvtY9crg9+aRYF7xrlCwvRcC5eMfbFQh50z9okKMRjMCqOMu9JG1ux6odVrVmhoDYaE6Qcha3ZO7tlHlugEY9Obyt5hbgojm7mguW0GbRgo+P77791bUE0GB+x9YgYWbNK/jdCy37dgQvgSQV4piv/Oh3NUwUCaTXFjwYuqa4k0PvnkExeT511JlTXACoW2VmiqrPFmnr32yYDWgtdEC2UqJgx/oKXM6hsGWH25sBX/tSc1vRgfWIvI2qgsfrP6usp2avo2LOJPfjEhKqHv6oorrnDTzbpMJ0tNL2YLpi8yCf/ZZ58t9rQjNX0bpERFI3BfmMcXvnvclNT0YnagW+Yf//hH5auWVaSmb4uUqBBCJKCBJSGESEBKVAghEpASFUKIBKREhRAiASlRIYRIQEpUCCESGJgSZYFW5gDyqp8FW/tTCCGmlWQlypsoKEveXeb9U95PZeop78iyYDCf0fW/8SOEEFMFk+1TsAVVy1ZVYb0/jul96fHAe85WPhb4P1wZR4hUkClbkclkjdWaZmF1rSRLFAvTVuwp+2TDihUrXFy1eooYPPIOxCjhlV5kik92sCITsmZ1Hhmc+k+2OFXaESxMThFrbcwSTbyMaIm8AzEqTJ5YoStkHCuNjYPO2o1vG1kGxZbatwVzqdRiNNCgkecxJYnbZeUmRAooRpOlmJK049PchdTZnbcv/+UKsnRZf0blbcHcHTt2uFgMH/sGd+wriGfOnCm2hEjDFkjevn176XfZ/c+ATDOdlah9qnfVqlUu9iHz+D445JZR5+9Ci3bwGWnri1q/fr2LQ9544w0X0/gJ0RX63VnhHW677TYXh5gRxfeQplkHdFKiZKB9CmLt2rUuBpQnnch8KoKP3jOQofUjR4e8AzEq+LY8oCDLFtlGR/BROOAb9VNN4da3wu8PNewjZUxxmOb+jz5jZVA2oEQn/6g/8SCmFz6OiCyVDSgxRmKyGH7UbRrpZImePn3axXlGuRhOnjyZ5crVTanBldcUmtEi70CMEuvOW7dunYuBKU5Md+IzMHwama68Ua0uP1YKZdoKG3Uv+1QvrZBZPFisYjTIOxCjgjpusmZyZZYpgWlPs0QnS9T61co+1UtfHKN1sGvXLheL4SPvQIyKzz//vNjKsuXLl7uYD8LNz8+7/vgHHnjAfWJ4VmitRP1pC5aBIYsXL3axuZchuJ6Y/SxS0paXX345W7ZsmUu7dOlS56pyvjr4DUoEV5Z0/iIpTaZikN7S9ZHjx4+7eMOGDS426PQ/evSo2+btEUbwxWjhy5Mmb+GCPP6xkKpj4+SDDz5wMQ22P4DJt+OpY7mnmu3evXtmFGlrJfrhhx+6mFG5ph/c97E+E/sQfhtISyu3b98+fFbX38I0i82bNxe/iHPw4EGnRFCEX375pUufux3utdWbbrqpVhFzDfp5+oq8AzEqrMFes2aNi0MefvhhF6NImxg4k05nS5RBihiWyb5rSTosyG+++cZ9e7wtdFqjeFEGNqUCK5L/USBNXFXcWhSvtZ7btm1z94hy9F2UEKzfr776yqXvI+P2DqBLetJMs3cwrZw4ccLFMSPqwgsvLLYWuv4+lDtl13SpTH5n8hELdefCC8NzNU+WQEPQxDurlDXXM9oCXickWdk0GvBfBfN/Q2e0P7hhv2mKvaMbTs+x1xy7TqWwQbLYwItNDeJ423seFZY33GcMyiJ2/xyzwcAuz9c1vd0TZWevDvvPYvtiWNm1uaZIw38fnu0y/LoS1isGQE2HlB2P4Z+zLHDOKiw9g632iir7TG7r7qNK1lpZoliD9kZMjLm5ORdjtd1///1uG7D+Ut5aYHUYuPTSS11s2P/cWxewMPOMjFpwW7duddZun9+4GJd3kJoekJNp9A6mFb9MYpao9ZmC1SssOfp46YojdCk30uQNK1psQWB/7DXnELrv7BVV6jR1G/x7DqmVtfwmGuNPo0GDYwWatUCrxEIjHMsvFm2lDDtPU2IWI9dvey7DrJ7YVCwsJZ7FnrHrdYYN98h9cb9lDMs7SE0fI1bWxiR4B9MKXgP5TRnFMHkMf+PXs7oyDkHWzIL0QQchC10xbyhWd5rIWivps7lgmMRc1DLCAvtRTKZ0qrA0TanK9LbnAsuUsHvAsOP+9bpcZ9jEFKSP37hVlU3q86WmN7hPBDd2r8iZzVEe1DVFM2IK0jDDhFBlSLVVojG4n5jcN8Eahdh9NJG1VtJnD55y00bshmLUKVEysynWusQUKJWX81nmGf49o5hi6UfJOL2DkNT0MC3ewTRCnlt+EygLsw6J+Z/9VXXLGIQS5RpVjW0d1AfuIaznRlNZayV9dpLU1gNiNxQjlumWERxvQp0CBb81rQqDyIdUxukdhKSmJz9JHysbO+7ne+o1RXP8BpsyQtaoS7bPDI8ytztkEEqU62FJdoH6wL3H0reRtcbSZycldNX8PrEbimHKAoXgYwUba018LOPqWskYbe95FJgwokBTSX2+lPR1jRtlZ5XUx79mX7yDacUszaYGSxWpSpRyJn0ThR2CLGFcxBRoW1lrLPGWgVx8EPg31ART4ty8jynXOlcVKLiyjOOcTZRQ23seBXZPXYXRJ/X5uqafNu9gWhlkg52qRLtaoXUKFNrKWmOJt761Ljfuw0P4Nxnr++JY2OJZxps1ykPETPIwfV3GtFGiXVq/YcDz2z2Rr6nYubrSJT33PW3ewbRieR2rs21IUaJmhTYxnEK4blcdZs8f0lj6EHRO0FXYwW6iLIQKs2wfFQ7L0+6F1iim/ML0/NauVRaqnovCCtP3gXF7ByFd0seEepK9g2lk0A025c65uihR6mKoG5qAPFFXwvvHwGpyvpis9Vb6uNkUqzc1/STQB+8AuqafRu9gWrGyQoGlgnyYIUQZlylljpXJmlmhdco3TI8hxL5YaKNEQ1nrpRIlg8jkrhUjNf2k0AfvIEzjh7r00+gdTCuDaLApe7+8wuDD/6H8AGXeRJGH6blv/1phqHquOlnrpeRRYF36O4zU9KKcOmGrIzW9mB0mSdbUfItGyDsQo2LSZK3TyvZi9vj73//uFoEp+754E1LTi9lh0mRtEZq02BZCCNESWaJCCJGAlKgQQiQgJSqEEAlIiQohRAJSokIIkYCUqBBCJCAlKoQQCUiJCiEmBvvCLN+At6/cjhsp0Zbs3LnTfcD/wQcfLPaMH/scLff12muvFXtF33jvvfeKLdEVPl/89ddfu09qP/fcc8Xe8SIl2gK+bb979263/dJLL/WmJTx27Fj21ltvue0+KXdxjjVr1mQ33niji8V0ISUqxJDBAj116pTbJu5L4zuJbNu2Lbv88suzJUuWZE888USxd7xIibaABQ3m5ubc9vbt27OVK1e67XGzfv36bOPGjW57//79Lhb94ZJLLim2fuXSSy8ttkRbqHNfffVV9v333/em/mkBEiFGAH3Vhw4dyrZs2ZLdc889xV4xDUiJCiFEAnLnhRAiASlRIcYEI/V9my7XdzRPdArQPFExCPwRe6bLiWZonuiEo3miYlBccMEFxZaYdKREhRgDTM9huhxzHg8fPlzsFXX0cZ6oRudbgjuPNco80b7MycSd37x5s7NGqZCaQiPE6JASFUKIBOTOC9Ej8CIYINy7d2+xR/QdWaJC9ARG7FmkxFDVnAxkiQohJgbNE50CNE9UDIsbbrgh27Rpk9ves2ePi8VCNE90wtE8UTFsaARx4x999NFij+g7UqJCiIlB64lOOFpPVIjxovVEhRBiypAlKoQQCUiJCiFEAlKiQgiRgJSoEEIkICUqhBAJSIkKIUQCUqJCCJGAlKgQQiQgJSqEEAkMRImyihCrq9gnYAksVcViGCzaIcYDi1nYIr8W+J91K4UQgyFZibKSEcuwsRjA1q1bs++++86tQsMyVax0tHr16t6sdjQr0KihLO+99163WANLh1Em7777bvb222+7hX+1ZJ4QA4J357uSK8yzeSXl3fuzeQUt9p5j06ZN7tj27duLPWIUWL7v2bOn2HOOAwcOuGOUmxAinSRL9KmnnnJWDisasaBsyKpVq1wsl350YGG+/vrrzgItW5NyxYoVLqbchBgUs9x11FmJohhx1+HPf/6zi0M++eSTYkuMiieffNLFzzzzjItDzpw5U2wJkY66jnJ+NUjbMzc359zC1atXF3sWgqu/ZMkS9xtcSDF8jhw54vKbQP6XsXHjRnccl1+IVNR1lODO08oAg0llHDx40H0HhRWo77rrrmKvGCbvv/++i/lOz0UXXeS2fXCt7DMiO3bscLEQXVHX0a90UqKY8KdOnXLbllE+ZO5jjz3mFOg777xTWqHF4LGGzfqifZghcfvtt7vtw4cPl/ZhC9EGdR0VFBZpK3y30Yf95i4yIp+3QMURMWxw361M/JkS8/PzrizYT9mUzaIQoi3qOjpHJyVq/aFkEvgVmD5SKc/RU9awURb8T9+0lKcYJKYDYgoSeTN5nHbZ6+TOf/zxxy6+5pprXIy7nitS5ybS/7FhwwZNsB8xp0+fdjEvNxgnT57McuXq+qxw5ad+lFSMDHUdeRTKtBUkI2D9hFgLhPUji3R0mOuEhRCCp2AzJcrKTIg2qOtoIa2VqG+mx5SkuZFlFVoMByuTvOUv9iykbkqaEE1R19FCWrvzNuLGyDvfYS/DRuPN7Tf8txnKwt69e4tfxmGSv/9mBIuevPnmm8XRanAzdu7cuWChlGXLljW6LrBGAGn69haG33WyfPnyYmshixcvdrHNqjDsmWKB402xsmmbhsVr/PtYWixewyyQOig70jQtw1HBcyFbPEtMXuhesTwue1b2Wb70qStGXUcBhTJtjE2urRpxM9fSBp4M9lWFOvff3FLOyzbBWsAmrR+/81tKrmfpyyYL+3Dc7rNvLa1NaubZYvj372NlFQsxy9aHcjA3jhCWexV2fXshwz9X3Xl8r6iu/EaNn9+x56C87Ddl+cw+O15VtqPGykxdR7/S2hI1S6asQ9mwCd028OQzPz9PLV4Q8krjQsyyNXhXnwn8+/fvd9Yugcm+sGXLFhfXQVrr6OZ6Tz/9tNs+fvy4i8vA0mPeay48xZ5+YZbotdde6+Iy7Pl868HIFdh5ZcKAAFYFlmUVWBzXXXdd9rvf/S7LFUextx2U/bZt29w2ZfqXv/zFbZsclYGVRpn3tUymGSuXq666ysU+lB/lCbt27XKxYZ5GLNR5E2Vp/FCXPtUTjXo9eYVpDJYbSQgxa8xvPcPf0PEcYucsOxZCC1f2Chn7OEedJVuGWTMxa8GsXSwLa4H7Zona88esMb/cwt/E8p1zNnldl/SW73V52Qa73xhYq1zHLL7Ys48L8oQ8RGbr6grPgZyFsM9krsxSHQeUt5VNTHasTAg+ti8W6upvWRo/NEnvlwe/b+qJmmyX/baVEq1SkEChW4VuOsHWKkMdVnhlvzVBiwlrFfZMsUzEZSGjIeU6wwJB4J6qnsG6YCibssoaQp4gbE1+62OC1qQ8q7Bnip0HN5H743dWYesqgRgMKV1H/F+meNEBhDoGkT5sjGyQrEpmTa9Z/Q9lrZUStRFeAorF7/Ng27Q6F2tSAa2yNFFKVRXU7qttRbLMMSUZYte0grNM7JMSNSEgINgIieU99+0r0DIBLIPfdlFKg1Ki3LMpyRCejWNmJVuF7XK/oj0oq7oytnoS1qsy+TMd0EQ2U9OX0URmeWaOx2StVZ+oTbDNT+r6FejzsL6FW2+91fWh5ZU4O3r06G8j9FW88MILLk3qZFwbeW7L5s2b3SwD7jeEPjdGGfMMy1auXFns7R+26EgusNnjjz+eHTp0KLv44otdmVx99dXu5Qf6PD/66KNGz0EfJ2nGtWgM/U3IGWsulPWRU2b0/VofqhgtpgPWrVvn4hBmJVif6d133+1io0z+0AG5gmokm6npy/j2229dHHseZv5QJxhLiVIo00bwc8IgLDFrQULzOkZVi2EtRNNzAa0LLWXMYsYaCltSrm3PjyXUxIUYNnZPg7LEsEK7PleqJUr5YWXGrAryPLRQfeuAdNy/GA5WZ6vkrU3XkZ2vqz5JTV/niTb1ehorUasghEFARW0j8FUV1AquaWbWKVAqoz1rVYgJ0iixe+kqSD4oMc7lK6k2VJVRHXUKFDhuzxsLXRW4qGfQXUdtdUBIanpkpUoPcNyXp2QlaieIae02WAtiGr4JPKgVXgj3xLFYZvjwHFUZVwUZynUGobAGgSmtps9eBwJJRehKVyVKujoFGiMm2GLw+G+9kd9WHyywnzrdRBZNB7TxHn1S09cZUm28nsZK1DKsbIJtW3gAbrBtxbd78Csb52Bfk8ofq6z8zznq6JsStUJFGFIxKzTl2booUcqPMgkrA/sR0rr78QVbDBeT/0Hk9Tit0DoFCsgkz1oVTM4bK1E7aVfNb1gLUlcQVmA+VknJAM5DJphCDhVjmN4qJftioQ47Z2oeDApzn8iDVMgbE4oYprDKFBvlwX1wnHOF5QFl6e0ZYqGpEh1EHohqmpZJHaYD2niiPinpkZc6BRrDZI3Yp5ESNUuNwAOkYBWt7jxlShQoQDLB7odKWFZhw/RmacVCXavmX5OQKkiDYFANm+VN3XnKlCDblidlwRe4ML1VhqpQJSf+lDtCKNxicPjl3EUB+Zjh0/U8XdPzDGUGl+m3Okx+QzlrpETHAUqwq7kOqenF+ZgQdW1IU9OL8WFlhzGRgjWcoSIKsev5DTZ0TT8IT9TOGXo9nRZlHjbM0Txx4kS2b9++Yk87UtOLcnj/Prf+atc4iJGaXowP+/w588NTYF4ndJ2H3DX9sWPHKj+YlyvYYqsc3rln/QzgU/EL3p8vlGmvQOOnuKip6cX50KKn9DumphfjZVBdR00xq28SvJ5F/EGZCiFEX2AdVVaBe/bZZ4s97UhN34ZeuvNCiNmFRazp8umqAFPTt0WWqBBCJCBLVAghEpASFUKIBKREhRAiASlRIYRIQEpUCCESkBIVQojOZNn/A+SaWTKzP3hJAAAAAElFTkSuQmCC;" parent="1" vertex="1">
          <mxGeometry x="409" y="63.5" width="337" height="149" as="geometry" />
        </mxCell>
        <mxCell id="6IPiZAuCc5kXTbYYCpUo-12" style="rounded=0;orthogonalLoop=1;jettySize=auto;html=1;exitX=1;exitY=0;exitDx=0;exitDy=0;entryX=1;entryY=0;entryDx=0;entryDy=0;dashed=1;endArrow=none;endFill=0;" parent="1" source="6IPiZAuCc5kXTbYYCpUo-8" target="6IPiZAuCc5kXTbYYCpUo-7" edge="1">
          <mxGeometry relative="1" as="geometry" />
        </mxCell>
        <mxCell id="6IPiZAuCc5kXTbYYCpUo-13" style="rounded=0;orthogonalLoop=1;jettySize=auto;html=1;exitX=0;exitY=0;exitDx=0;exitDy=0;entryX=0;entryY=0;entryDx=0;entryDy=0;endArrow=none;endFill=0;dashed=1;" parent="1" source="6IPiZAuCc5kXTbYYCpUo-8" target="6IPiZAuCc5kXTbYYCpUo-7" edge="1">
          <mxGeometry relative="1" as="geometry" />
        </mxCell>
        <mxCell id="6IPiZAuCc5kXTbYYCpUo-8" value="" style="rounded=0;whiteSpace=wrap;html=1;" parent="1" vertex="1">
          <mxGeometry x="170" y="150" width="360" height="200" as="geometry" />
        </mxCell>
        <mxCell id="iwduy3Q3XS4gCMmoP7Fj-2" value="" style="shape=image;verticalLabelPosition=bottom;labelBackgroundColor=default;verticalAlign=top;aspect=fixed;imageAspect=0;image=data:image/png,iVBORw0KGgoAAAANSUhEUgAAAV0AAACsCAYAAADYMX+/AAAAAXNSR0IArs4c6QAAAARnQU1BAACxjwv8YQUAAAAJcEhZcwAAFiUAABYlAUlSJPAAACG+SURBVHhe7Z3/rxXF+ceXzz9grvIjMUYkgQDR8M0E7Q+QKCr9oU2p2rQ/mGAKt5AmAiJc2x9MwQqBNiGoF6KJaVBKwJgYIBQTSUpLBJHQoLGJQEzT8BO1Yv8APvsa5rnO3btfz9mzd88571cyd+fu2bN3784zzzzzzDMzM27HREIIIRrh//xRCCFEA0jpDgl//vOfo2effTa6++67oxkzZri0dOnS6OWXX47+85//+KuEaJ7r1687OUQeTTaRU+T15MmT/qrBQUp3wEGhPvHEE9HPfvYz9/vFixcjPErXrl1zQv7qq69Gc+bMif7xj3+4z4VoEoyBJUuWRG+++Wa0efNmJ5ukQ4cORadPn45Wr14d/epXv/JXDwj4dMVgcvPmzduxQOOzvz06OurPTmb27Nnu81WrVvkzQjTD4cOHneyNjIzcvnz5sj/7PfY56ezZs/5s/9N6S/dvf/vblG4xlhstpMhnw4YNzrLFknjjjTf82ck88MAD7viXv/zFHYVoAnpW1vvCqn3wwQddPmTWrFk+F0Xnzp3zuf6n1UqXbsUPfvCD6MiRI07x7tq1K4otMqcgKDCUr/yR6dBY8d7glVdecUch2sJLL73kjhgETz31lMsPDd7ibR1jY2OZXY/x8fGJboe6xenwXng/uA/yMPcDSYgmwFVgMocLIYsTJ05MXBcbXP5s/9NKSxcrjQEe2LZt25Sux7p161wLCVi9XC++h9Fgcxc888wz7pgG1+F+AHufQvSa9957z+ei6LHHHvO5qRw/ftznomjBggU+1/+0Uunu37/f56JozZo1PjcZRjqN8HoRRR999JHPRdGTTz7pc1M5duyYz01+n0L0EhuPwVV4zz33uHwS3IZ2XdxbGywXhLd4WwMj7jwWia5vFteuXZu4jsT3xB3MtUDKApeNXSMXjWiK0LWQ5zKIe2gT1w1S5AK0ztI9f/68z91p4bK4//77o5GREf9bFH355Zc+J8y1gCWRBu6YFStWuDzuh3fffdflheg1YRTC8uXLfe57sHAZQGcQmPp94sSJ6NFHH/WfDgatU7qff/65z0XRokWLfC6dZcuW+dxghZR0QzjJYeXKlT53B2b3WEQIIXgINF24rC6eEHVz6dIln4smKVPGFw4cOBA9/PDDbqLE6Oho9NVXXw1kZEPrlO7HH3/sc6ITPvnkE5/7fvABgSa+mdk9KNnDhw9HV69eHb5QHTHtMMsMwoFbDAF6tevXr3dx4zdv3nRx5YNqDLRyIK0sixcv9rnJLegwE1q6c+fOdUdcMQgyyhaIcWauuxBNQuP/3//+1+WZgm6gYC9fvuxcXbjGsHYHeVp6Xyvdu+66y+ei6Ntvv/W54cYsCfxhKFsDq4EJJoSI8RkheQM3p120mgsXLvhcNCUMlN/phY2Njbl1QRhzGFTF29dKV0yGQQgEFkJ/dwiKmNhnwHemGGfRFFeuXPG5KJo/f77PTWbTpk3OKMAitllrg4aU7gARRn4kB9FCwlHjMFBdiF5ivTDIikigR2YGA64GXBKDxsAo3dC/O6yEkR9p4ThpZAm1he7YQkMc+b2bSoBVzXoZu3fv9mc6h64ogy6y1PsHm/2YFcqYxo0bN3xuMsgQ5W+LYOE6qyILXGvfzUvIfVWoI9QVZD2Nvla6X3/9tc9N9u8OK2Hkx7x583yuOggNa+ximXz44YfMsHBHFB2jzlV9bdyPSkGomsUQdwqVhUEYBgPNlSLaT6gQuzWQKH9cDzt27HCyiRyQkC9ktAxffPGFz+VjrrgyYKjQGBCJgesui9Yp3XDw59atWz6XTmh13XvvvT43vJhCo9Dzwm3CmOY0NwStND61ffv2TXQDOSKAnH/++efduSLMWuZ5ulWQKHosByrWoBBaVGlWWvh5Wu+A95H3eZsIZW7hwoU+l07YMCfdEPyfWMwMuNGQAzrjj3/8o8uX7Y2Zbjl79qxT3MlEnDC+5bVr17rriuC5MFQOHjzovpdH65Tufffd53NR9Nlnn/lcOlRqoxvLbhAIrc+ixWuOHj3qc1O7etwHoUdwknG8tg4GQl/G2mU9XyoACvfTTz+t1K1Mwmg2FhKhb9xL9BdhSGdeXQ2350lbrOm1115zx6efftodDZQzjTtGQbj2SBYYaSjuNN8yMoulipFRJlaYSR0oW3qDxL8XWcetU7phxQxDTNIwHxEvO20R5GEinBSRN5MPiyr0rSXfm1kZadEPYS+kjJvg9ddfj06dOjXpe53C7KSdO3cObMD8oBMOouXVVXpXxsaNG33uDsiuxfmm3cMW5P/ggw/cMQ+sZOQpjT179lSycln1kEHsNAWeRuuULi8TJQq84CyLqqhFHDbC95Q1UYSewQsvvODyCBWLwicpmmRijWLoT8+iTgUpZdu/YDmasoSsOo0/1hpzuvdJJVbkhzVXGdZmp1S1co0q17ZyIO2Xv/ylz90x3dP405/+5I5VWqRBJrQkbKeNULhppJjpg5VLo3bmzJlUa8EmmRRZp2X8ZiKf0IeYZiWFn2/dutWf/R56EXmft4VkjxVXEQrW3IPIEjMkbfseuv1p20uZH9aMsiy6GT/gb0PWkrJ10EqlixK1F0urkxyR5Hfbiub3v/99Ld3XfgbhNUHDEh0fH3fKE+G2gRbWXaD7Zesu5HXxIPStC9EN4aQIZBODYO/evdHMmTOdbFLXqc9Yt8hxVrffMDdC3eC+sOfopU5ppdLFVH///fcnFC8tIKOSjBBSYGGLiD9l2AknRfz4xz927wQr6JtvvplkLXHORnyL0FoWoi7CqenIJlYsg6GhbGIIcL6Msisa6+kUQtBgy5Yt7tgrWql0AUsMZYLfkdF4LF5i8yhAWiJCPYpaxGEhnBSRNb2yKkVrWWgyiiiLDdxmTU2vSugfTqMoeicNrFz8yb22cqG1ShewePFVha0i1hstYtmRwmEgnBTR7XspUqY2SKG4aFGGMP44b2p6GYr2SbPB3SKfbxpNWbnQaqUrymEjvt3EwRqPPPKIO6aFhIW+47wNBYUwinaKqAIDwUaozA2L3/7Rj37kjmUxK5coqCbGh6R0+5wwQqFbSwKYEGGWQnIA04LOk10wnsEG7MqQN9MQnzP3KTvD6rvvvvM50UbCsYFue2H0fJE9SC7URASEReYkxy1s/ZA0RQ1m5SbjgpNUlfNw8tYk4i676GPGx8cnNvA7ceKEP9sd3If7jYyMTGwKyJHflyxZkroJqD1DGlxv9yTFFSPzWdmskGuyNi2MLe2Ja0ixde822RTtBJmhnJCbOqD87Z7Ivp3j/pxPkwVkhOvTNrjknMlRGbiWlAX3Q77tusOHD0+pL1K6fU7c8k8UcJoy7BSEJ+5uTdwbQeJvpf0NhJ5rEPoQE+iiFGL/j1UoI1S0WalsxRHNYHJBGhsb82e7h/siJ6Z8OSKrWY2vKcG0z03G0xRykiw5B84XJfsbUrqia8yKraNimcWCgAvRLRgJyGYdlnZdcj6DH/GNhOgYVrvCf0UccJXpkEnwubGKGBM4ysYTC5EHYwMskpM1A7MKdcm5BtJEV9jgRLeCCPv375fCFbWBgmRFvToUbp1yLktXCCEaRJauEEI0iJSuEEI0iJSuEEI0iJSuEEI0iJSuEEI0iJSuEEI0iJSuEEI0SG1Kl+BhdndgKw1biYc857I2ohNCiGGjFqXLpnJM32Q9y3feeYf1HKKbN29GL774otvx4aGHHpqyTKAQQgwlzEjrBlsVKmvJP/ucRUzqXAVLVIMFZFiog3KiPKxMWGUpa5lFIZoAvcCqcrYEoyV+T642Nwh0pXRtLde8VaHCJfnKLJ8m6oc1PSkjEnkDZcs5yobGUYimYblFW3oRXWGGGefNQMgy6PqVjpUuL8EqbN5SZ1K60wtKlndPWaWtJ2qfq3xE0yCPpkNCY8Cw9WtJ6JFBoWOf7ttvvz2xK+fatWvdMY28rVlEb2EA07arP3ToUOpKS7NmzfK5yftZCdFLWAHsJz/5idMhsdGWurJcuCVUuPlqv9Ox0j148KA7xqZ/7mZuR44c8bkomjdvns+JJmDLeqCM2PtMiLaA0RZbsi6/adMmdxwWOlK6WFD2wn7605+6YxqEkdl1o6OjXa9DKcrDu7cdfTdv3uyOaWhjR9E0WLksLA55eoHrBpGOlG64PXfWtsq8sOeee87lR0ZGot/97ncuL5oh3C01b7v048eP+1wULViwwOeE6B3sKm2uyR/+8IfumIbtPg2LFy/2uQHA+3YrEYZ2pIEDPBx5TBvAEb3FBijyNmsMB0MZQRaiCcINT/MI9Qw6ZVDoyNK9cOGCO8YvxR0N3A5MlMCHiFth165dbsJEt1tliGrgWjBLYuXKle6YxoYNGyauY1KLEE1g4zxJ/RFy4MCBiR41eiRv3Kjv8Mq3NFitfI0UhoqFe713u1um6I6iMD0s3HDSiiZHiKZAHk02s8LALP4/75p+prLSDeM6k7F1VF5zK9A1GKSA5n4iq/tGFw2BtgYSxasyEk0SKtTQIEAO0SfmUuA4qG7JykrXLCRS1ksJ/bmq1M1jflrevxGWmxpEMV2EBoHJYGjIYRAM+hhQZaVrCpWURZkuhOgNWLP27lG0IQizCf0wCLdoH9bL4hiC3JpbDKMhbYbaoFBJ6dIyWYXGWsrDrku+3CS8XK7pdAoqz4RyMeuOI793M9rJd7lH0f/YRkKrIWuxEHzu9q6keKcPKydSmvyHn6cZL9YVz/q8bYQGAY1/Grgo7ZpBVbyVohe+/PJLn8sfFQ+JX7TPTYYR9qVLl7ppqlnXFHH9+vVozpw50enTp6MPP/yQBsQdWUYytsgrr+NLbPHu3bujuBFwS1L2I1euXPG5KJo/f77PTYYZQLHCdZELNmtNiF7zz3/+0+eiaNGiRT43GWZOxo2Jy7MW9yBOkKikdMO5+Z0G0qMIn3jiCbf+brdQKCiOffv2RY8++qg7x3Hbtm3u/PPPP+/OlQFliwJnejMKqV+hATLsnSRhBtCyZctcnrAcGi8hes3f//53n8ueVAVm0FGHwwkSg0IlpRsuOjF37lyfmwpWrGGtlrFixQo3u+TmzZsuhrdTUN4oDBRkcl2BNWvWuOPFixdLWbvEBKJssZKvXr3qlHa/wv8Myfeex40bN3xuKpQljSSNUrfQA2E3kVA+OoFGggaX5xL9w2effeZz2QZBkn/9618+NxXrmd59993+THmQHdvhJi+hG6pSKOd3vAzlwAfIVzjmYT5DUtKvmBw1t+uq+nTN6Z7ld7X7lvV1hc9VdO+2Eg5gFsVK87/ZtWnvHv9bONLcjc+Q+4cDsFXL2qCMrGxI/VY+w46VWxhVk0ZYxllyh7/X9BGpKuF3sxLXJPVVHmXlvLSli8Vos5esa5oGrY/5Q+OHnrA6jboWvbl06ZLPpWOW3tdff+2ORQzCYjyh+2fhwoU+l064fkZodVB+WJH4tTv1tRt1upIGxf0zrIRWH2M5eYQ96qQb4uTJkxN7L3Zi4RrostiocD3uWA9OSib39HjL6IWqcl5a6YaDaHTBsxzcv/3tbyeU8xtvvNEzZfbtt9+6Y9H0wGHyV4YNUd4ymgiugeCFMDWYd4bg4f6xxqsT6nIlDZL7Z1j54osvfC7KXRYAvWIGAY1raBCg3H7xi1+4vRe/+eabrqauI9fbt29P1U979uxxfztvnfCQqnJeWun+9a9/9bk7EQlo9rDymrbHyuWBY/M/dWHiurnvvvt8ToSDaHmCzcCjsXHjRp+7w+uvvx6dOnWqlrnuX331VbRz586uG95169ZF58+fL+0HFO3jzJkzPpcdVQOss2skG1dkGplCHroFGU+rIxgc6LCyVi5UlfPSStc0uClUup+//vWvJxzO7PhLK7Vr1y73EE0oXChyMwwLCIv1MIBGMA2c/GZJjI6OTlFkdfZM2nov0Tw2wAuh1RuCzNo6u4R8plmavZaDqlYuVH2mUkoXZWov7fHHH3cKlcpLVy/0haCYt27d2mgFMTdDFgO1DmcOtvKbQZeHMjI3EEqZFeBs+56xsTHn/hGi15i7yli/fr3z0XMekFFcSMgshgNdfyzRphtalD5WLvqtl3+7lNIN/blZQc1NU6RMaRDg3nvvdcdBJ5wUMT4+7gRn79690cyZM11PhJ4JS+ph3VIB6A4J0QThpAgaexKDZcgksomM4l/FoDt79uy0KFywiUJbtmxxx15RSumGo+J5Qc1N8sgjj7hjOApv0HJay5q3a8IgYf5cukb4vLBi6XmEPREaIs4P1NqkovWEkyKefvpp1+CjWEPZZGCMntl0+e2JrkCXYJT0un6UUrphCEevXkreXl1YbbSIYYA+EyJoKYHCCrFZLMkXSPfBfNBlsK55P2Dun7xwPiGmg3BSRFs3NNixY4c79trKhVJKN2uniG7AnxMqUUbUswZ/slwaNgpPzJ7FAXLkdxzxyX3ZyhQ437edjlFkoV+0rYQxkGXXxBCiKaw3Wqf+qJMmrVwoVLooQhsVr2NQCkVrPsZwsRX+aSIg+IzQsxCb4HDXXXe5o4G1iw8IXxCByXyXzTCxjNP8Qua4pwuexCxg7hM6/Rl4Mr9oqNzaRBvdP0JAPxgEZuXWEYpWhkKlGw6imR+1G4huCH05aQmFGYJvEkWZ5p/F3YE1at81v2WaI94c+rRoScK/n5XaGicahs316hlv3brlc1NJc//kkedKYpZR2Qaun9w/w0oYHtZLgyBLFopcimblYoUX9YRrk/NYmbQa5i/zmHWsrRm/WDc3usp86n4gbpDcOyqa014F3lG4tmncM8ncS83mymfNk497DlPWTMhax5fPuCZr3jrneRa7F3IxaOU5SITrd9RZTuGC/CTWGkHO0rBr0iiSt5C65Lz1SpcXW4fC5aXyEgatglLQVshFi9yUwRq5ohQS9xzcueTiRqEAZiXKJMQUalJYk99LS2UqjmgWK8+6DAJTknkpVIpWPzBMkiBjfJaUwSzqkvMZ/IhPCtExLGASC7cbeOxmIIIuIv5zBkHLzGEXogiWKli9erWLDe42Nr0uOS8VvSBEFvjEEMI64n+Zd4/v/q233vJnhOgOIpxoxNktpRvqlHMpXdEV+/fvr2VxI6zco0ePuoVR2hrLKfoLG4ytY4ZbXXIOci8IIUSDyNIVQogGkdIVQogGkdIVQogGkdIVQogGkdIVQogGkdIVQogGkdIVQogGkdIVQogGkdIVQogGkdIVQogGkdIVQgw0bHLA4vik5H6K04GUbg4swsLWQawWz7Efdip4+eWX3fM+8MADmXvOCTFMsGciW46R2H5rupHSzeHYsWMTm+pxZOnBNoOSffXVV12edT/DPeiEEO1ASleIacR6JvSk1DPpDayByzrNJJZnnHZY2lGkw9Y+tj0Ix37Y6octe3hetknJ2odMtAPbLsYSW1OJwUfr6QoxTbDINlv+G7HSbcVAj+gtci8IMU2wXf7o6KjLxz2TaPv27S4vBhtZukII0SCydIUQokGkdIVoIfh7d+/erYiGGtDkiD5CkyPEdGADbMRZP/TQQxO72orO0OSIPkKTI8R0cO7cOZ+7Q/J30d9I6QrRMhYsWOBzd1i+fLnPiU5o2+QIRS/kgDvh5z//ubNyV61aFb377rvRPffc4z9tJ7gXsHYJQXr//fejBx980H8i+glcCli4KFxCy8TgIKUrhBANIveCEEI0iJSuEH3C9evXXVQK0Sm4kUR/IqUrRJ+wZ88eF5UC+O0VStafSOkKIQYaTY7oIzQ5QrSJLVu2uKgUGBsbU1RDSdo2OULRCzkcOHAgWr9+vf8tinbt2hVt3brV/9Y+ULLMYDIIczt16pT/TYjhBAsXhWtMt8qTpSuEGGg0OaKP0OQIIUTdSOkKIUSDyL0ghBANIqUrhBANIqUrhBANIqUrhBANIqUrhBANIqUrhBANIqUrhBANIqUrhBANIqUrhBANIqUrhBANUpvSZZ3KZ5991q3ow9KCpKVLl7q1APphScRBh10HKAvKxMqHsqLMTp486a8SQvSarpWurTlr61RevHjRLZ3GCvdUcBZfmTNnjtZ2nUZoEJcsWRK9+eab0ebNm135kA4dOhSdPn06Wr16tVtzVAjRACx40yk3b968HVdmFsy5PTo66s9OZvbs2e7zVatW+TOiSQ4fPuze/8jIyO3Lly/7s99jn5POnj3rzwohekVXlu6GDRucZYsVxZqVabCDAbA8omgWehfWA8GqTVvmcdasWT4XRefOnfM5IZpj2FxfHStdNsU7cuSIy7/yyivuKNrFSy+95I40ik899ZTLC9EmhtH11bHS3bFjhzuyWHZehdYg2vRAo2i9C4Q5i++++87nhGgWFK71xM6cOeMsWwOdYr1nFPIg7XzckdKlO2AV+plnnnHHNLgO9wPQmonmeO+993wuih577DGfm8rx48d9LooWLFjgc0L0lmF2fXWkdD/66COfi6Inn3zS56Zy7Ngxn8u3tkT92FbTbDOUtcUQvRC7rqjHIkSdDLPrqyOl+8EHH/hclLkNNC2ZvVgqfth1EL2Frpjtfrpy5Up3TIOBULvunXfecUches2wu746Urr2wlCmafBSV6xY4fK4H9jQUTRH2BVbvny5z30PFi6DEwyEskPqiRMnMhtPIepm6F1fLnCsAsR68jXSrl27/Nk7xJXXxevyGfG5/C6aJ27oJsoo5Nq1a7fHx8cnYqcpK2KthWgSYsaRv7zYfeTSrkNeB4nKSpdKaxXalCqV2c7xogi4F9OHCeuSJUv8mdsTjSEJYZeyFdMBE3BMDpNGW0hoOAzapJ3K7oVwOu/cuXPd8f7774/iShzFytb9zqgkwc6ieYgYMT8tweYG4TdxL8W5e3APPfzww5qaLRpHrq8Yr3xLY11TrKk0sHrN0sqaGix6Rzitl15JGmNjYxNlmDY1WIheIddXRfcCL8FeWJ4/hm6DXaf5/M1iCjXv3Yf+srxyFKJuTO6G2fVVyb1w/vx5n8sPRQq7DeFIpeg9TJ00srplxO0uW7bM5XE14JIQvcdW5GNtAY55szXLXocbj+tY46Tt5SjX1x0qKd3PP//c59L9MWkkBWH37t0Ti1rkpSpxvSyKES6WQd6C/juF7yPI/Tb90GYAxhaDO5bhxo0bPneHsBzyUtWKgfKg/FnMpFuQK3x/KKV+gclCFm7J8e2333b5JMhemeuQTZZOBZZS3bNnj8u3lQsXLvhcNGUGGr/zf8c9Nfe/EHI6qIq3ktL9+OOPfS6K5s2b53PVuHTpks/ls3HjRp/Lh5aeRTEef/xxN5hHQukymNfJQhkIsn2fwu8nwgZi8eLFPleNsoKOUk+bupkFFYp1lZkwY9ZOJ5jinj17tpuTL/qHK1eu+FwUzZ8/3+cms2nTJjeAhozY5KqBw7sZSsHlpKK4udCnmwwLwWfD93Gcp8FnZf2MFn4S+ocg9FmWjRVmQIm/a/ez5+8nn3T43ovC9uw6Uoi906xwHhuoK/teeP+UKeXBMe1vloVnsvtY+ZaVlTaAXJqMcczzXZa9znz4eXWqLYT1Kg/730lt/586obT0h5MiGIHMI3y5ydFxhCRLIVSt0DYSmjZKb875omc1qMQ8mwm4PX8/Kd1wZDgvKgFFaNcl3481PllUaRS5F+/VyscUOqkqNrJt5WENTNlnEdOPlX1RmYVKN1n/7HxRypN/CGUxLyG/VaGhQP9k/Z+lpR+htwfJsoIg/GeqVogqFRrs7yQLBkKrrwxJayLv3m3FrL+i/zlPqPOo2ihC+F5D2eiE8F5Suv1FWPYYN3lkySeK1M7npTIyEeqzvJSn65Ign6HeyXqO0j7d0NeX5ZfF3/bCCy+4fKwAovgBXL4M+Pzwof7mN7/xZ/Ip8j2GA31lRnWzVuLqF8KRYch6P+EgTdwaVwo8p2xiQar0nTrfa7+X0TATTopYuHChz6Vj8gmhrP3vf/9zR/RKrLumpNgocJ+X0SG3bt1yx1ipp96LuoEOW7t2rbuuCMYZGLM4ePCg+14u8R8oBVYol1uiWxqa8Oa74zOOReZ9CC0E3yGVJWw50/w+4edha1mWbr47HZgVagmrl3NmHfKOzP9HKrI2kphlwD07JSyTbpGl21+0zfWFHGfVAeoKf7+slVvV9VVK+qm49iK4EX+EY9idtc86qZT2kFW+W1SBw887UZzdfHc6CBUq5YNPKfStkxAMzqc1UnlQ/pR1lUYxjaIyq4KUbn8R6oo8KE+7rkrdQ3dU/U4W1BGe1wyWMoTX1qJ0w9aHCl0nnVbosAKntZzh550URDffnQ5MwfIu66aTRjGNsEy6RUq3fzDL0VKWpWuKk4Tiq0IVKzePqlZuGkWyWcqnG06KyIqv6xQCv/FF2p5rnWC+niw6jSnuJ2xShM00qwv89K+99pqLi9VC9KITwkkRwMQHxhZsph3jEcTb2/Y9ca8tc3fxNA4cOODGg5577jl/pnP427BmzRp37AWllG44KaLOFX+6qdBFivTf//63O8aW38APwISTIvKmZ3dCHY2iGG7CSRFxT9nV9b1790YzZ850Mxup/6wqxuAVynPnzp3+6mLQIdu3b6/FKKAe2XOwcmKvKKV0bTQxNpfdsS6sQr/44ov+THlQpHGX2uXTNq2zgh4G66xoubxOsUaRhktWrugUWw8EOVq3bp2zYj/99FN8TBPp6tWr7nxVZVenUWD32LJlizv2ikKlG4Ye1WlFhRW6yJSn+0CLmJxnb/srEaaRhBYLki8Q5cG9CPEoQz/s0xSG8NXZEzGB3rZtmz+TDesp8F5DqzsP61omQd64D6kMWfcR7aEfXF/ILcZlr61cKFS6n3zyic/Vu09RWKGLuv9ZfmReNNYuXRLWWaAQSOQ5d/jw4SkvcNGiRT6XDv6lUCHv27evMCZ4ujFLwiz/OjCBplEsE6tYVKF4h/v37/e/RdEf/vCH1PjpMus5UEGsoaVCh/5B0S76xfXVlJXrYDQtD0YRuYxUJYSiiLgylw7LsFHNZNwe8H1GC+PWbuI5GTUk4iIN+3+SURg24piX2jhSbqOtpKqxt3nwfrhn2VFce//JkWnemT1fVgr/hv0/yEaS5PfSUr9EmwwLYb2qs2ws6ilNTqpiUTVp+qUT7H/O0hfdx+40gMWgZinSKhBaRUFRuUU9UAEoH95tt1h4Yp0NiJg+wkkRdWKKrYxRQH3n2iylb4ZBUaOAQVHmf7Fny6oPrVe61qJhoXaLtWjdxpuKySBklFFW/GUVqAAIa5kekGg/pvDqaJCN0MotIyd5StV0QpZVmoRrSVlwv7DXja5JPmPrlS4Vui6rh1ZXCrdeECgqVB0KF4FF+KVwB4O2u77ALPE0hZykLtfXDP8FIYQYOBhgJR44NgxcmFo3sEMNGybEDUilWOIkpeJ0hRCiHyHCIbZMo7feesuf6RwimVDe7G7RDVK6QoiBBCv36NGj0ZkzZyptLZWGhb6dOnWq6xmuci8IIUSDyNIVQogGkdIVQogGkdIVQogGkdIVQogGkdIVQogGkdIVQogGkdIVQogGkdIVQogGkdIVQojGiKL/B04UWHPQpDSwAAAAAElFTkSuQmCC;" vertex="1" parent="1">
          <mxGeometry x="195.79" y="174" width="308.42" height="152" as="geometry" />
        </mxCell>
        <mxCell id="6IPiZAuCc5kXTbYYCpUo-9" value="" style="rounded=0;whiteSpace=wrap;html=1;" parent="1" vertex="1">
          <mxGeometry x="40" y="212.5" width="360" height="200" as="geometry" />
        </mxCell>
        <mxCell id="6IPiZAuCc5kXTbYYCpUo-2" value="" style="shape=image;verticalLabelPosition=bottom;labelBackgroundColor=default;verticalAlign=top;aspect=fixed;imageAspect=0;image=data:image/png,iVBORw0KGgoAAAANSUhEUgAAASwAAACUCAYAAAApkxTZAAAAAXNSR0IArs4c6QAAAARnQU1BAACxjwv8YQUAAAAJcEhZcwAAFiUAABYlAUlSJPAAACEHSURBVHhe7Z1vjBbFGcAXPzeAVD6QNIYCGg1YUe5s478PhCq1bQyJChpj2mL0oE0/NCgep62pfw6NiUlTgTY1oQkHLSGxQcVqWwuiRqiAWhAK0jSkbSLQqulX9bq/5/Y55uZ233d357133733+SVzs7e7s7vv/HnmmZlnZqYMx0SGYRg14LzENwzD6HhMYBmGURtMYBmGURtMYBmGURtMYHUw//nPf6Jf/OIX0VVXXRWdd9554r74xS9G3//+96O///3vyV2Gkc5vfvOb6Pbbbx/NOzj+f/3115M7agijhEbn8c477wz39vYOz5gxY3jjxo3Dp0+fHv7ss8+GN2zYwKiunOcew/A5e/bs8IoVK4anTJky3N/fP3zixAnJO3v27Bk+//zz5fy2bduSu+tFRwiskydPDq9evVoKIZGJI8JffPHF5I7uggw3b948EUxkss8//1wc4N92221ybdWqVXLOMFwoO+SPwcFBEVRu3tEKj/xVRyoXWGgJCCok//r166WAEtFaEyDIug1+M5mqr69vNLO5EE9cv/HGG5MzhjECmhN5Y86cOal557XXXpPruDpS6VejSSCsiDxXk8A9//zzoxHbTZoW2qb+7g8++CA5O5bly5fLdRNYho9q5kNDQ8mZsWzatGk0f9WRSr9aNYlFixaNqw34n1qC63VVX8uwbt26zDgBhDzaJ/fQt2UYChU7+QJ35syZ5OxYqOS4TrdCHal0lDBWX8W/9dZbo7j5J8cK/8eahBzHmkb07rvvyvFk55VXXhH/7rvvHhcn8Oyzz0YfffRRNH369OiWW25JzhpGFL3xxhvix8JIRpN9GB18+eWX5fgHP/iB+HWjMoFF5FHw4Oqrrxbf55prrkmOouitt95KjiYvmDG8/fbbcjx//nzxXRimfuCBB0RYvfrqq6mZ0uhetLK78sorx1V2VPg333yzHMfNxejaa6+V47pRmcB68803k6MRbSqNqVOnJkdR9MknnyRHk5d9+/YlR9GYDLVr167oG9/4RnTHHXdE9957b/SXv/wlWrhwYWa8Gd2HW9m5CgCCCru9K664Iurp6Yn27Nkjtlh1zTsdYTj6hS98ITkay6WXXpocRaJRTHZUpb/hhhskQ5EJMfb71re+FZ09ezY6fvx49Mwzz0Rz5841YWWMIa2yw+AYQUXXy+7du6OXXnopuu6662qddyoTWAcPHkyOoujyyy9PjsbSbU2eAwcOiL9o0SLxZ8yYEX344YfRli1bopMnT4qW9de//tWElTGOw4cPi0/e0fxBN8rOnTujOXPmRMuWLYu2b99e+7xTmcD6+OOPk6PsJmG3FUztENW+O37/BRdcICr87373Oxl8WLx4sU3LMcahLRC0cwXt/Jvf/KZoVsPDw9KlQPdCnemIJiFNn27Hnd91ySWXJEcjQguHKk/t+d///ldGCn0I7845RMiVGVmlYx/Ntuh8s1a93yiHVnaXXXaZ+IpWen19fSK0Hn744eTKOSh/Dz74oKQ7aXfRRRdFTz75ZHK1MWj9muZpjuvNKPL+ygQWIxnK0aNHk6NsvvzlLydHk5MjR46IzwggKrwPGU+byNp0VBAW119/fbRkyZLo008/letkYLSxvJUBNS8ZhVoYoViEVrzfKI9bMbj9vgp5Z9q0aXLMgI3PnXfeKRXVH//4R0k/0pHR6DxCCyHYyN11113JndkUen/80ErQ6SW4vXv3JmfHwrQdvYf7JzNqvd7IoE+N/nwLdwxrMbJl3hhgcIqlM/c2m9qEIerSpUvlmcwuUGPdrDRJI+T9VcFvjguyOP+3utd8Gl2rCrVejyu7VGNjeOKJJ+QenItO5SG9NCzpSHryG5l50QjyDfMTCeM6nsczsr5HKfr+yjSsCy+8MDmKon/+85/J0Vj+97//JUdRtGDBguRocqJD0q7m6aNqv3sPtSt9W/RdoE5DnNDRV7/6VTnWMFnQsY8RIRoW/R2x8Emu5CP0/VUR5/1R51P2WlWohkWTnLhPQ/u4dEBHoW8USC8NSzqSnvzG/fv3y7ksBgcHpblJGNf95Cc/ie67777M71GKvr8ygUXkKox8paHNJNACMBmhE51RQMgyokVlVtx+ATWonT17tvhKXEOJr8/Ngkxy0003SSbhuFkG8wl9vxGOGozSBE+D/KUVB7NKXDSsppei6Xnq1Cnxs0izBySv0hWQZyZG0fdXJrD4QB3R+O1vfyu+z3PPPSc+Enwymzi4tUiawCDxH3roITlm2oVrVKoGtX44/tfatFkHelEh5dKK91cBGmXc9BDnzqgA95pPo2tV4FZ2Wek4MDAgPmVu5cqVcqzobBM/rLZomtk/pr2TvLp27dpcZbbo+ysTWHwgIwNAhLOypguZnFqBTug1a9ZkJsZkwNUwf/SjH0mhUDhGo9Jm189//vPccVG1kO/kSsZtvvjx6V7zaXStCo4dO5YcRdH69etHtRugqchoLecQVjt27MidJu4skyLwLvIq2lVImc16f6WxjqbQ398vx6tWrZJRAQQVP1rnPWHZ7auLkw1Vi9Ek0UoYetZCgZU7I6RDQ0NiT8MQdV40w8yaNUv8dlP1+7sBnR1BvkGr2bx5czRz5kzJO1i5Izw2bNggTfci07n0vqKj82hX5OPQMpv5/uGKiVVrGZ1idCz+SHGskRX/6OGDBw82HWWYDJAMOBZXIz7SXLPRH3wfXYamSBzqSGTeUcJWv98ohqYXo+jEc1beyUoDwuJ8dOSxyOi8jvjFQjI505yi769cr6UmYHSK+U7YYODOnDkjmlU3TPB1+3fQOFWz8l1WPOiqDu5UJ6BZQP8ANe9ExmHV7+92tDOdwRriOSvvZKWB9jO6tlygnd1FRufRruhjLaJdFX1/RzTEG0X0ZEdXrShbsBk9pZ9Pm5WKToZlXa2JpOr3dzNuZZdmMJoHHTX0l28iPUlXRpDzoH1XmMgUyceF359oWkZFqErP7iZlQNVHbeYZGGliCHry5EnZcScWguNWnowzkxg/psGKldqMo4nHs3z88EXfb7QObY4Tz1lNvmaQPrFgkG4Y7QbQ5hjGnC68j/RP6y7AePiGG25o+B1p4Yu8H0xgVYwKiK1btyZnikMmwdp47ty5Y/oA2RrMz0C8CyHp4lpvcx2n/+Nc0sIXeb/ROnR2BHFdFtKHbcDcPuSenh7pV/bTTgWkL7C076pZHk4LX+T9YAKrQtypR0U6KtMgcdM6W314l5/B/XC+c0kLD3nfb7SOVlR2kDftVOD4eVXDN0vvZuGbvR+k+owfYlQAUa/RH9csE95nR5/Ht7/9bZkGxCKARQkNb7SWuFCL3468A7EmLtPCHnvssVLvCw0PnWH91qWQaO0cYMDoFMvhsjYyoeGN1tLOvENlhU3Uo48+Wup9oeEV07C6CGpkMkvZDBMa3qgv2hpAQJYhNLxiAsswjNpgTULDMGqDCSzDMGqDCSzDMGqDCSzDMGqDCSzDMGpDaYHFbHwW3XO3dmJxMLbFtn3zDMOYCEoJLJaCYBXMdevWRd/73vdkd2KWhcEojMXCent7xy0XYRiGEUphgYVmxfKn7G/Gmuv33nuvrIKJhtXX1yfr4bCvnb/ksVEOlu1gmVvVYnH87y4tYhhpkEdo8dDy0bxDi4g8VVcKC6wf//jHsu4NwondiF3LZ3zdgsqahWFQMSCY2NiUKQ3Hjx8XLXb37t2yaBsbl9Y54xkTC8uNk0fYL0E3KCUPYSdOnkKQ1RIs3fPCOkcEwWWtLqBLXvhLkBjFWLFihcTj4ODgmNnr+CzlwjXWIDIMH9aTipUHWZ/KzzssO65lmPJcNwoJrHXr1skPzVowjMXbdMmLjRs3JmeNouj6QnMyds5l7XfNdIbhghBCWJE3WGfKh/ykeSdtIb5Op1CTUJfBZdlbbQa6PPvss7KON0ub5tlE0UhH9yB85JFHUuP5/fffT44MYyxPPfWUNPvosklbAui9995LjmrKiNxqDtoTt+Oo4X3QCpDsLHfaLbvdTAQsU6zxnLW8sC6rzCqNhqG4ZfSFF15Izo5FF9GjnNaxjOYWWG5Bcn8o53WJXVaiRA01YVUebXYjjNLiETVe0yGt4jC6Fy2jWcLI7bIpsn1XJ5G7SagbNrL7MM0URrEYJmWjzzgiZASCrblQQ9OaMUY+tNnNaKsfj9i26QazbKzqbllvGFpGMV3w8w7lFdtJumxoLt5///3JlXqRW2AdOHBAfLajghkzZojB6JYtW2TolMhgy3UTVuUhU7H8MLDPnIKgYhianXx7enqiPXv2iMmDxbXhopXd4sWLxQfMizBxuPjii8U+kooOxaK2eSfRtJrCrTi3bYzaiYsLkFxjt5Q6DpV2CmnNbrbLijOXqPLEc6MF+o3uJa2PeWBgQPIODlOYyZB3cmlYrlX1JZdckhydW/weA1I0LyQ4I4VGOQ4fPiw+cUm8AhtM7ty5U9ZRX7ZsWbR9+3bTrIxxHD16NDk6t6nqT3/6U2kZsVkpGjpG33XPO7kE1pEjR8THXCFtAwIiAfN/0KajD6opzRiajkWgmfTggw+OTi+46KKLRMXNS2j4dsIGD0A/ocI3s5X/Sy+9JMPVWCnv2rUruWqUhXxI3OL8aU7uNZ9G16rE3UFcyyLfuHDhwmjbtm3R17/+ddmthrJQZ3LF+p///GfxtcM9jazzCAyk+7x582QqCYWuCHfeeaeE0+kFS5YsiR544IHcQic0fDthyg1cdtll4ivELfM16Swl/h5++OHkilEW4lGdT9lrVaKVHQsPuGWRYwTXD3/4Q/kfoUWZrCu5BJZ2BOs8wTS0sLn3ICi+9rWvRRdeeGH0+OOPJ2fzQ/jf//73otpSUxDxdBgytw6h02y+Ymj4duKubqEqvQsZb9q0aXLMxPM0yIgI4rK1f0h4JrujvRKWGp5Kqs4Fo27s379f/Msvv1x8n6lTpyZHY5uPLpQX0i7vxHruI70buTzP4h53mSpaYpmrvcQ1RUPc+YNZdj86lcS/59ChQ6N2WZznepE5hjov0Z+3iL0X53lvI0LDtxPmf/FNjQz61OgP58M1Bj1iwZZ6vRkh4QlLOLYXp2N3aGhInoF9XqfCd6rz49u95tPoWlW4O4hT5tJw7ff8KTkM9jAvVdM+75Qd95lpLmtqmQvP4L39/f0SpxidM8BEXmQgwadpVaqSG+IHJ0fnoBbVqSQsLePaBiHt1S4rLWwzdJjW7zebPXu2+KdOnRI/i9Dw7URrlDQbGkXVfjUtAcKh2fzjH/+Ifv3rXxduqoSGR0tFW2WZIfratIak+Yp2S63diWhtjvPj273m0+haVbgaU5aGpX1coANnlF365H72s59FTz/9tLQ8ikLZOn36dBQLmzGO81lTy1y++93vjm6wSpzSEmLDXgbwGCQYh4itBqjlNY4hdqSxwjHnuMbM8PjDkyvjUWlcRMPS9/pgWpHnWaHh20ks2OWbsiyQXU3XvYfpO665g96Tl9Dwqhlu3bo1OTMC/3N+1apVyRljoiCOiWvKYBaav7hHtR58yoKmPde4J6+GRd5Jm9lCywUtyT/vo5ohLR4XWkSc55t9mlYTqqVQY1Kz0+GrNQxW7khHjNEYxaJjuB247fEyhIZvNWgpGN9CVo00MDAgPjXXypUr5Rjoc8CshPQoo8WGhtcBmS996UviK/p/J/UTTla0jGalH/2Lmr/iym70PvybbrppNO2Lpj95J21mCy2utWvXNn0eJjugLR5FW0T6zS5NBZZ2uDOcToc1L2G0TR1DpjQBymb4Muh7yqiwEBq+1Rw7diw5GslQNKO0w5omG/HLORJyx44dklEUfktIvIeG//jjj8X3n6EDBzoYY0wM5BMt2MQ1gyZaSeDzf6yBiUkSigVNLpdW5x3Nu26lmsUnn3wivv8M/tduD7/TvqHAcm+mbwqhlOZCfnQZ1C7Ml8x5CQ3fanQOGIlEzbR58+Zo5syZErdMx2GFV9bKp7Igw7U7vsvgClVj4ti3b19yNDK/lH5OTBvIO5gS/fKXv5Q+RkaWqfgmOu+gXS1fvjw4/bPCNxRYrjFaFYVEpaw/xKmd5QsWLBA/i9Dw7UKNbbFIZlIqhqGuFkumpElOk7sOwgr0O1W9NyYGnR2BjSQCibxz5syZ0bzDogR0aKc13VoN2hWV65o1a4LfpeFnzZolvtJQYKVZXrcTCjBoW1ehzY6KS/u7EaHh24U2m5jwTEK52qs6zk90hmslWklQyxsTh5ZRJjxn5R1cO/IO2hUVaysqKbVO8J/VUGBpIN/yuii0pbdu3SrHSGBf4wE1WHSbobSDESxsJ6bn6UCkX82fcR4avirc700zGO101FBYm9nKv/71L/FVyzUmBq3sqm4tqHaFeUvecjV//nzxDx48KL5CHxjL4KS27JLRwnG4xmgMM5ZBjcJw+iycnsPgUFGjSHdIlWFRhk1ZzE7D9PT0iIGiP2QaGr4q9LvjxGnJN2kcl6VoeDUIxkjXRc1hsgwZjXDUVAiXtTptEXQl27xmDS4YnromE3ngm2OFQkwgXHTVkrR9ITJzJi/GPkNtNMrgPiPNuc/VgusLx7RnpH1PaPiqUGt83xalKFgFq00UzrWXU7QCIa58yoYnLtV+h/DAfWRCflMnxfVkQ9MrbjYFxzPpTZrxPNI3zcpcVxb20ZkuWTNhFD8834xNIWFXr14t78TeENtOKvA0IVy+Km4xSHfM88tGfGj4qtBM4hteFoFMoI5n4fR/d3qM1si+wAoNj8Ewca9Te6htyYhUDsbE0YrKToVIWtrjXFQD8yG98wjNtPCEYa0ujER5H3mI30OeSnteRwgsCgIfWTaDh4avklZoffqMLKeowPGFY1oY1ylZ4fl2P0zI7zHy4cZ3WdxnpDkXBA6CySft3jSywhfJPx0hsPSDyxIavltAMwrpKwsNb9QXmmu0Buj/LUNoeKWppXs7iFVBGeErS2j4boCRF4bAmUJFfBUlNLxRb1hJmEnJTHAvQ2h4RRqpybExiSGZcQibMgInNLxRb1RMlE370PCKCSzDMGrBn/70p+aTnw3DMDqBf//736ZhGYZRD86ePWsCyzCM+mBNQsMwaoMJLMMwaoMJLMMwaoMJLMMwcsGyUOywxGqgaUtEtYOuFFhs141lPJt9dgpYkus26KwtZLQHCh5xbzSHteRY84otuAYHB5Oz7aXrBBaLCbJdN4OjrJNeVU3h84c//EH28eO7OkmQTmaouFgz/+KLL7bdfWqCNQk7ELM0aQ9acaExUGEYjbnnnntkyWJW8WVjiyroOoHF1l79/f1y3NfXF33lK1+R46pZsmTJ6Nr5TBI1Jh4Kn+Lvq2iMh12lT5w4IU3orB2mJ5quNBz9/PPPk6NYYnfIKg8kgyaFTTBuD4cOHRJNgbXD0bYszjsfs3Q3uha3krDlieqBCSzDMGqDVSuG4aAmL1dddZWZO3iYHVZFmB2WkYWOHLK1+9GjR5OzBpgdVgWYHZbRCIbsjc7FmoQdiHUrVgc7gmPugOnLNddck5w1oBPssCgcXQU7vrCHHj+drcE6ZQcYNo3UDUmHhoaSs0a7IT/oVlPGWNy4qarcmB2W2WEZRm3oyiYhQkpdp4CA0m8yYdVZ0NlMujAoYlSL2WEZRhMQVlpM9u7dG1177bVybLQf63Q3jCZYnT6C2WFVhNlhGUXA/AWYnN7NI4dmh1UBZodlFIVVPT777DPbpr8DsCZhB2JNkM7CHRDpZmw9rAqw9bAMoxy2HlZFmB2WYdQTM2swDKM2WB+WYRi1wQSWYRi1wQSWYRi1wQSWYRi1wQSWYRi1wQSWYRi1wQSWYRi1wQSWYRi1obTAYhIxqx6w3ITOs+L4ySeftO2RWggrN9x+++2jcYzj/9dffz25wzC6h1ICa9euXVFvb68Upqeffjr69NNPow8//FDmwzEpkmVSTGiFQfwhmO644w6Z/3j8+HGJ5927d0cvv/xydP3119syNEb3wdScIrzzzjvDU6ZMGT7//POHT58+PboYvS5QP336dKb6DG/btk3OG+VYsWKFxOPg4OCYRf/xN2zYINfmzZsn5wyjWyisYd1yyy0ySZcVBS644ILRSbq6BAc75sKpU6fEN4qD5oRjKY+1a9dKvLrxvGDBAjlmMTXDyGIydicUElhEAIWEgsQP10Lkwo65RhgPPfSQ+I888khqHL///vvJkWGMZ1J3J4woWvno6emRpgj7+qWxd+9euY47dOhQctYowosvvjgah+xVmMaNN94o12+77bbkjGGcYzJ3J+QWWGfPnh0tSFnCSAsSG4JqJBnFWLduncQhwigtDt1K4bXXXkvOGsYI9B2TN+JWUGr+Ic9o/qkjuZuE+/btS45GVh70YR1y1M1FixZFW7ZsSW3KGM155ZVXxL/yyivHxSHrz998881yPDQ0ZNtNGeOY7N0JuQXWG2+8IT7L+GpE0FamLYz9VSzZZScNFuqnM94oDvH59ttvy/HVV18tPiCoqBCuuOKKKG6WR3v27MnsQzS6F8yNdCBGl9v2ee6558SPNXjxa0eiaTVF+6/Wr18v/9PXEhcYcX19faMmDtYULI/bf6Xx2NvbO2pGEguqMX0ShuHSDd0JuTUsrfl1SB3jUEYfHn/88WjTpk3RXXfdJfuVWa1fnsOHD4tPs1rj8a233op27twpI7PLli2Ltm/fbnFspNIV3QmJ4GqIK5ndkSvVqBiN4BragFEeHbTwR2GJYzRYtCy0LTQxw3BxB8Vc7QlD79WrV0u+YTAMLb3OGnougfXEE09IRGSNPCDENLKsMJVH43Dr1q3JmXMQ7wgyrlvFYPh0S3dCribhwYMHxafDN605wl77ijZrgInQrpVtmssDlrlY0GsYOpyL7NgcGr4duN9z6aWXJkfnIN6nTZsmx75xrv6uLEc65IVJ7cQPTf4iMGDAZHjyAu/UifCdBL+N7+Ibs6y9GUTi+7Pmw3KOa9zTScaXXdOdkAiuhiChuXXjxo3JmfFwHYc2pqhmluXorG8GzVFqCbQLaohYeMr3zJgxQ9TgZoSGbxebNm2SOGEuZlYt6Mani57Lch988EFyZzbEhTYdCEPztAhLly4dnjt3rsQv8Uza8iw3P1SNG39Zv498ofekzYdVOycc93YK3dKd0FRgnTx5cjSBskYW3D6uF154ITk7kkEYsSADu+7EiRNyb56ChEUuTVHCAQkwNDQk4SlgzQgN3y5WrVol30Q/QxaaKeNaNDkzAudUULgOoYFr1gygEBJPjABrf2QRgaWFmHjVd/F+4p1CQh7qBPIILK2ccc0EFvd2CvpNRbsTqGhIoyzH9UaEhgcqy4GBAakACENezKromgosN4GyMr4WNrQDt1MegYR09+H+rKFXFzoMea6vifFczlOjNyI0fDvhW/gmNRvxcSsO/x6ElR+Xen+eKVLcQyXCM9QSuojAWr58uYTxKyDinfNpBb8K+D6EKPk0q/LVyoyKI21qFOe4xj3c2wloPsdlpTd5Ru9x0Uowy6UJQJfQ8FBEO28qsFQY4dJwI4t5Sm7B4TirIOWxA9Fmkl9Aeaa+sxGh4duFK4yyahadH0aB8wuSH8dAulGw0q75cI/ep9pyEYGlWon/Li0kWb+p3fB9qn1mxUuze/I8o92EdCeQzpRb/U3qEMbktWa/MTR8Ue28aYlVg1EchQYBBahxvEzb/KiceRKwSEHSSE7L8DSLuEYByyI0fLtwR3go/MSr9q8R366wStOmfIpUCj5lBJZ+uw/dA0WfZRRHlYoy3QlZ+YlmWaM+ayU0fFHtvOEwnTtVhGk38f2yHhYjJDNnzpTpIpj4M1Xk0UcfbToCwShN/COi73znO8GjFe7IZBlCw7cSnfbECA/rX23evFnil3hmOk6cmFFci8moz8KFC5vG3VNPPSUjQ1UbB06dOjU5MiYSNRhdvHix+D6UO+b5wq233iq+kpafGP2k7FPWmxEaXr+d/Ooye/Zs8f119RoKrKNHjyZHkRSkuD0a/e1vf5O1dXBx0yR65plnouuuu04KVzO0IMUaQ3KmPBpJs2bNEr8ooeFbyYEDB8QnM91///0yJ0zjGMfE87jGGbNgYhZaKWRNfm0n+n7WZDImBtI71qjlOCu9BwYGxKfsrVy5Uo6VtDBMoKa856nUQ8N/9NFH4vvP0Rk1r776qvhKQynz5ptvih+rmvJAhFKay4ool1YXpP3794vvS+a8hIZvJVr7MeE5K545nyfetFLAlqpqjhw5Ir7WlkbrOXbsWHIURevXrx/VbgDbPvIB58gTO3bsaCpEuBeNHu2oTDkNDa9kaecNBZZKN5oqoVCQpk+fXqggzZ8/X/y4nSy+QoIgmfmuRpESGr4duAaMaQajRdBK4b777mvr79L84RvjqjqvtaXRelrdnYB2hDZftiIPDa/od47Tzke6stLhMs61rSqDdgL7o3XNYDSMkQ/f3kU7qZt16oWGbwc6MBBnuFwDEY2g85Xf648iFqFMp7uOBjJa5cKATaORKyMc7UwnDYhnf7QOx/k8aaAjdn4HeF7KhOd+nE/WCH+mwHLNFcr+ACVvQYql6hhDMyJZCwNGnoycIfwwfqOA+88LDV8FOkoS10rJmXK4lUKjzImAJJ7SRkd5ho44YRejI8IuaeG1YmDEWM9rhusUW6XJCnGMKzMi7MPIXh77yCzKhKcc8v1+XtOlcnxlKVNgaYaLVbvSPwC0IFEgmz2H+/yanTDYeVCAKCgUCp7lbjGmhIavArVhymNg1wgVNM0qF9XoXIHDMXGD45o6PeeahaSFJx4xPCWzahi0q+eff74j4niyQhpoWoVWvqodlRV8ZcOrQpFXO88UWNyoKmUIRZ7Dh6dpGu4z1KUVhNDwVdCq78n7HBU4rmBLix/Xuc9MCw9pzwj9TUZjNC1a0Z2AdtTMPpL3URm5lZVSNnxR7Tyz0z1+8OgIVQh5n0Pnc/zh0Zo1a5Iz53CfoY5zLqHhq6JV35P3OQyk9Pf3j+kUTYsf17nPTAsPac8I/U1GY3Qwqbe3NyiudWQvj31kLDOSo3OEhGfUktVH2DWe7cfIN7/61a+iWDtPH6ATsdUB0JeTZTWbh9Dw3QA1GBoo2k8ZQsMbraVV3QmUmTwacTPtOjS867KeNYU/CK6qiT9QpHPZmiI0fDdAUuOoxcoQGt5oLeR5aFe+X7p0qSy//Nhjj5V6X2h46JicF9qEsCZIc4ifEGETGt5oLaRFu/I9XS7YROWZgpdGaHilYzQswzA6l1DtOjS8YgLLMIzaYPq9YRi1wQSWYRi1wQSWYRi1wQSWYRi1wQSWYRg1IYr+D8Wu6bhtdTQsAAAAAElFTkSuQmCC;" parent="1" vertex="1">
          <mxGeometry x="70" y="238.5" width="300" height="148" as="geometry" />
        </mxCell>
      </root>
    </mxGraphModel>
  </diagram>
</mxfile>
